<mxfile host="app.diagrams.net" modified="2023-05-25T16:03:02.475Z" agent="Mozilla/5.0 (Windows NT 10.0; Win64; x64) AppleWebKit/537.36 (KHTML, like Gecko) Chrome/112.0.0.0 Safari/537.36" etag="PK9uUlOQdBQK0CjiHI34" version="21.3.4" type="github">
  <diagram name="Página-1" id="5epc60IE3qGVqPrUaaoj">
    <mxGraphModel dx="881" dy="1048" grid="1" gridSize="10" guides="1" tooltips="1" connect="1" arrows="1" fold="1" page="1" pageScale="1" pageWidth="827" pageHeight="1169" math="0" shadow="0">
      <root>
        <mxCell id="0" />
        <mxCell id="1" parent="0" />
        <mxCell id="VgKNul05xVIXojfzLSrd-3" value="" style="edgeStyle=orthogonalEdgeStyle;rounded=0;orthogonalLoop=1;jettySize=auto;html=1;" edge="1" parent="1" source="VgKNul05xVIXojfzLSrd-1" target="VgKNul05xVIXojfzLSrd-2">
          <mxGeometry relative="1" as="geometry" />
        </mxCell>
        <mxCell id="VgKNul05xVIXojfzLSrd-1" value="INICIO" style="ellipse;whiteSpace=wrap;html=1;fillColor=none;" vertex="1" parent="1">
          <mxGeometry x="30" y="20" width="110" height="60" as="geometry" />
        </mxCell>
        <mxCell id="VgKNul05xVIXojfzLSrd-5" value="" style="edgeStyle=orthogonalEdgeStyle;rounded=0;orthogonalLoop=1;jettySize=auto;html=1;" edge="1" parent="1" source="VgKNul05xVIXojfzLSrd-2" target="VgKNul05xVIXojfzLSrd-4">
          <mxGeometry relative="1" as="geometry" />
        </mxCell>
        <mxCell id="VgKNul05xVIXojfzLSrd-2" value="&lt;div&gt;anio_nacimiento (str)&lt;/div&gt;&lt;div&gt;&amp;nbsp; &amp;nbsp; anio_actual (str)&lt;/div&gt;&lt;div&gt;&amp;nbsp; edad (int)&lt;/div&gt;&lt;div&gt;&amp;nbsp; &amp;nbsp; nombre (str)&lt;/div&gt;" style="rounded=0;whiteSpace=wrap;html=1;fillColor=none;" vertex="1" parent="1">
          <mxGeometry x="2.5" y="110" width="165" height="80" as="geometry" />
        </mxCell>
        <mxCell id="VgKNul05xVIXojfzLSrd-7" value="" style="edgeStyle=orthogonalEdgeStyle;rounded=0;orthogonalLoop=1;jettySize=auto;html=1;" edge="1" parent="1" source="VgKNul05xVIXojfzLSrd-4" target="VgKNul05xVIXojfzLSrd-6">
          <mxGeometry relative="1" as="geometry" />
        </mxCell>
        <mxCell id="VgKNul05xVIXojfzLSrd-4" value="&quot;Escribe tu nombre&quot;" style="shape=document;whiteSpace=wrap;html=1;boundedLbl=1;fillColor=none;" vertex="1" parent="1">
          <mxGeometry x="12.5" y="230" width="145" height="50" as="geometry" />
        </mxCell>
        <mxCell id="VgKNul05xVIXojfzLSrd-14" value="" style="edgeStyle=orthogonalEdgeStyle;rounded=0;orthogonalLoop=1;jettySize=auto;html=1;" edge="1" parent="1" source="VgKNul05xVIXojfzLSrd-6" target="VgKNul05xVIXojfzLSrd-13">
          <mxGeometry relative="1" as="geometry" />
        </mxCell>
        <mxCell id="VgKNul05xVIXojfzLSrd-6" value="nombre" style="shape=parallelogram;perimeter=parallelogramPerimeter;whiteSpace=wrap;html=1;fixedSize=1;fillColor=none;" vertex="1" parent="1">
          <mxGeometry x="6.25" y="310" width="157.5" height="30" as="geometry" />
        </mxCell>
        <mxCell id="VgKNul05xVIXojfzLSrd-8" value="" style="rhombus;whiteSpace=wrap;html=1;fillColor=none;" vertex="1" parent="1">
          <mxGeometry x="740" y="20" width="80" height="80" as="geometry" />
        </mxCell>
        <mxCell id="VgKNul05xVIXojfzLSrd-9" value="" style="ellipse;whiteSpace=wrap;html=1;aspect=fixed;fillColor=none;" vertex="1" parent="1">
          <mxGeometry x="740" y="110" width="80" height="80" as="geometry" />
        </mxCell>
        <mxCell id="VgKNul05xVIXojfzLSrd-10" value="" style="rhombus;whiteSpace=wrap;html=1;fillColor=none;" vertex="1" parent="1">
          <mxGeometry x="725" y="210" width="110" height="50" as="geometry" />
        </mxCell>
        <mxCell id="VgKNul05xVIXojfzLSrd-16" value="" style="edgeStyle=orthogonalEdgeStyle;rounded=0;orthogonalLoop=1;jettySize=auto;html=1;" edge="1" parent="1" source="VgKNul05xVIXojfzLSrd-13" target="VgKNul05xVIXojfzLSrd-15">
          <mxGeometry relative="1" as="geometry" />
        </mxCell>
        <mxCell id="VgKNul05xVIXojfzLSrd-13" value="&quot;Ingresa año actual&quot;" style="shape=document;whiteSpace=wrap;html=1;boundedLbl=1;fillColor=none;" vertex="1" parent="1">
          <mxGeometry x="12.5" y="380" width="145" height="50" as="geometry" />
        </mxCell>
        <mxCell id="VgKNul05xVIXojfzLSrd-15" value="anio_actual" style="shape=parallelogram;perimeter=parallelogramPerimeter;whiteSpace=wrap;html=1;fixedSize=1;fillColor=none;" vertex="1" parent="1">
          <mxGeometry x="6.25" y="460" width="157.5" height="30" as="geometry" />
        </mxCell>
      </root>
    </mxGraphModel>
  </diagram>
</mxfile>
